<?xml version="1.0" encoding="UTF-8"?> <svg xmlns="http://www.w3.org/2000/svg" width="1000" height="1000" viewBox="0 0 1000 1000" fill="none"> <rect width="1000" height="1000"></rect> <g clip-path="url(#clip0)"> <path fill-rule="evenodd" clip-rule="evenodd" d="M65.7074 677.444L124.862 202.866H279.409L381.711 485.137L484.032 202.866H638.56L697.734 677.444H542.318L505.606 561.74L457.682 755.823H305.76L257.836 561.74L221.123 677.444H65.7074Z" fill="#ababab"></path> <path fill-rule="evenodd" clip-rule="evenodd" d="M302.246 755.823L361.42 281.225H515.948L618.269 563.497L720.591 281.225H875.118L934.293 755.823H778.877L742.164 640.099L694.221 834.182H542.318L494.394 640.099L457.682 755.823H302.246Z" fill="#dca97b"></path> <path fill-rule="evenodd" clip-rule="evenodd" d="M303.43 746.368L347.702 391.304L381.711 485.137L455.629 281.225H515.948L618.269 563.497L666.825 429.556L697.734 677.444H542.318L505.606 561.74L457.682 755.823H305.76L303.43 746.368Z" fill="#dcc5b1"></path> </g> <defs> <linearGradient id="paint0_linear" x1="500" y1="0" x2="500" y2="1000" gradientUnits="userSpaceOnUse"> <stop stop-color="#B3994C"></stop> <stop offset="1" stop-color="#FEE199"></stop> </linearGradient> <clipPath id="clip0"> <rect width="1000" height="1000" fill="white"></rect> </clipPath> </defs> </svg> 