<?xml version="1.0" encoding="UTF-8"?> <svg xmlns="http://www.w3.org/2000/svg" width="6444" height="348" viewBox="0 0 6444 348" fill="none"> <path d="M2148 -3.05176e-05V146.372C2835.19 61.069 3302.16 175.937 3632.96 291.289C3963.76 406.642 4115.39 319.885 4179.13 255.908C4212.99 221.926 4248.67 152.729 4296 146.372V-3.05176e-05H2148Z" fill="white"></path> <path d="M2148 -3.05176e-05V146.372C2835.19 61.069 3302.16 175.937 3632.96 291.289C3963.76 406.642 4115.39 319.885 4179.13 255.908C4212.99 221.926 4248.67 152.729 4296 146.372V-3.05176e-05H2148Z" fill="white"></path> <path d="M2148 -3.05176e-05V146.372C2835.19 61.069 3302.16 175.937 3632.96 291.289C3963.76 406.642 4115.39 319.885 4179.13 255.908C4212.99 221.926 4248.67 152.729 4296 146.372V-3.05176e-05H2148Z" fill="white"></path> <path d="M0 -3.05176e-05V146.372C687.186 61.069 1154.16 175.937 1484.96 291.289C1815.76 406.642 1967.39 319.885 2031.13 255.908C2064.99 221.926 2100.67 152.729 2148 146.372V-3.05176e-05H0Z" fill="white"></path> <path d="M0 -3.05176e-05V146.372C687.186 61.069 1154.16 175.937 1484.96 291.289C1815.76 406.642 1967.39 319.885 2031.13 255.908C2064.99 221.926 2100.67 152.729 2148 146.372V-3.05176e-05H0Z" fill="white"></path> <path d="M0 -3.05176e-05V146.372C687.186 61.069 1154.16 175.937 1484.96 291.289C1815.76 406.642 1967.39 319.885 2031.13 255.908C2064.99 221.926 2100.67 152.729 2148 146.372V-3.05176e-05H0Z" fill="white"></path> <path d="M4296 -3.05176e-05V146.372C4983.19 61.069 5450.16 175.937 5780.96 291.289C6111.76 406.642 6263.39 319.885 6327.13 255.908C6360.99 221.926 6396.67 152.729 6444 146.372V-3.05176e-05H4296Z" fill="white"></path> <path d="M4296 -3.05176e-05V146.372C4983.19 61.069 5450.16 175.937 5780.96 291.289C6111.76 406.642 6263.39 319.885 6327.13 255.908C6360.99 221.926 6396.67 152.729 6444 146.372V-3.05176e-05H4296Z" fill="white"></path> <path d="M4296 -3.05176e-05V146.372C4983.19 61.069 5450.16 175.937 5780.96 291.289C6111.76 406.642 6263.39 319.885 6327.13 255.908C6360.99 221.926 6396.67 152.729 6444 146.372V-3.05176e-05H4296Z" fill="white"></path> </svg> 