<?xml version="1.0" encoding="UTF-8"?> <svg xmlns="http://www.w3.org/2000/svg" width="6444" height="348" viewBox="0 0 6444 348" fill="none"> <path d="M2148 347.789V201.417C2835.19 286.72 3302.16 171.852 3632.96 56.4995C3963.76 -58.853 4115.39 27.9037 4179.13 91.8807C4212.99 125.863 4248.67 195.059 4296 201.417V347.789H2148Z" fill="#F4F5F9"></path> <path d="M0 347.789V201.417C687.186 286.72 1154.16 171.852 1484.96 56.4995C1815.76 -58.853 1967.39 27.9037 2031.13 91.8807C2064.99 125.863 2100.67 195.059 2148 201.417V347.789H0Z" fill="#F4F5F9"></path> <path d="M4296 347.789V201.417C4983.19 286.72 5450.16 171.852 5780.96 56.4995C6111.76 -58.853 6263.39 27.9037 6327.13 91.8807C6360.99 125.863 6396.67 195.059 6444 201.417V347.789H4296Z" fill="#F4F5F9"></path> </svg> 